<svg width="81" height="80" viewBox="0 0 81 80" fill="none" xmlns="http://www.w3.org/2000/svg">
<rect x="0.666626" width="80" height="80" rx="5" fill="#A2E1DB"/>
<path d="M39.9999 17.3333C27.8609 17.3333 17.9999 27.1944 17.9999 39.3333C17.9999 51.4722 27.8609 61.3333 39.9999 61.3333C52.1388 61.3333 61.9999 51.4722 61.9999 39.3333C61.9999 27.1944 52.1388 17.3333 39.9999 17.3333ZM39.9999 19.2464C51.1049 19.2464 60.0868 28.2283 60.0868 39.3333C60.0868 50.4384 51.1049 59.4203 39.9999 59.4203C28.8948 59.4203 19.9129 50.4384 19.9129 39.3333C19.9129 28.2283 28.8948 19.2464 39.9999 19.2464ZM31.3912 26.8985C29.8177 26.8985 28.5216 28.1946 28.5216 29.7681C28.5216 31.3416 29.8177 32.6377 31.3912 32.6377C32.9647 32.6377 34.2607 31.3416 34.2607 29.7681C34.2607 28.1946 32.9647 26.8985 31.3912 26.8985ZM31.3912 28.8116C31.9308 28.8116 32.3477 29.2285 32.3477 29.7681C32.3477 30.3077 31.9308 30.7246 31.3912 30.7246C30.8516 30.7246 30.4347 30.3077 30.4347 29.7681C30.4347 29.2285 30.8516 28.8116 31.3912 28.8116ZM29.4781 33.5942C29.2245 33.5942 28.9812 33.695 28.8018 33.8744C28.6224 34.0537 28.5216 34.297 28.5216 34.5507V48.8985C28.5216 49.1522 28.6224 49.3955 28.8018 49.5749C28.9812 49.7542 29.2245 49.855 29.4781 49.8551H33.3042C33.5579 49.855 33.8012 49.7542 33.9806 49.5749C34.1599 49.3955 34.2607 49.1522 34.2607 48.8985V34.5507C34.2607 34.297 34.1599 34.0537 33.9806 33.8744C33.8012 33.695 33.5579 33.5942 33.3042 33.5942H29.4781ZM37.1303 33.5942C36.8766 33.5942 36.6334 33.695 36.454 33.8744C36.2746 34.0537 36.1738 34.297 36.1738 34.5507V48.8985C36.1738 49.1522 36.2746 49.3955 36.454 49.5749C36.6334 49.7542 36.8766 49.855 37.1303 49.8551H40.9564C41.2101 49.855 41.4534 49.7542 41.6327 49.5749C41.8121 49.3955 41.9129 49.1522 41.9129 48.8985V41.7246C41.9129 40.4051 42.9847 39.3333 44.3042 39.3333C45.6238 39.3333 46.6955 40.4051 46.6955 41.7246V44.1159V48.8985C46.6956 49.1522 46.7963 49.3955 46.9757 49.5749C47.1551 49.7542 47.3984 49.855 47.6521 49.8551H51.4781C51.7318 49.855 51.9751 49.7542 52.1545 49.5749C52.3339 49.3955 52.4346 49.1522 52.4347 48.8985V40.7681C52.4347 36.8173 49.2116 33.5942 45.2607 33.5942C44.0302 33.5942 42.9266 33.9922 41.9129 34.5414C41.9104 34.2893 41.8086 34.0484 41.6295 33.8711C41.4503 33.6937 41.2085 33.5942 40.9564 33.5942H37.1303ZM30.4347 35.5072H32.3477V47.942H30.4347V35.5072ZM38.0868 35.5072H39.9999V36.2881C39.9999 36.4757 40.0551 36.6592 40.1586 36.8157C40.262 36.9722 40.4093 37.0948 40.5819 37.1682C40.7545 37.2417 40.9449 37.2628 41.1294 37.2289C41.3139 37.195 41.4844 37.1075 41.6196 36.9775C42.5674 36.0671 43.8419 35.5072 45.2607 35.5072C48.1778 35.5072 50.5216 37.8511 50.5216 40.7681V47.942H48.6086V44.1159V41.7246C48.6086 39.3616 46.6673 37.4203 44.3042 37.4203C41.9412 37.4203 39.9999 39.3616 39.9999 41.7246V47.942H38.0868V35.5072Z" fill="white"/>
</svg>
