<svg width="80" height="80" viewBox="0 0 80 80" fill="none" xmlns="http://www.w3.org/2000/svg">
<rect width="80" height="80" rx="5" fill="#CBAACB"/>
<path d="M40 21.3333C29.6914 21.3333 21.3334 29.8222 21.3334 40.2923C21.3334 49.1761 27.3565 56.6096 35.4765 58.6667C35.3894 58.4107 35.3334 58.1137 35.3334 57.7456V54.5052C34.5758 54.5052 33.3065 54.5052 32.9876 54.5052C31.7105 54.5052 30.5749 53.9475 30.0243 52.9111C29.4129 51.7593 29.3072 49.9977 27.792 48.9202C27.3425 48.5616 27.6847 48.1524 28.2027 48.2077C29.1594 48.4826 29.9527 49.1493 30.6994 50.1383C31.4429 51.1289 31.7929 51.3533 33.182 51.3533C33.8556 51.3533 34.8636 51.3138 35.8125 51.1621C36.3227 49.846 37.2047 48.6342 38.2827 48.0623C32.0667 47.413 29.1003 44.2721 29.1003 40.0079C29.1003 38.1721 29.8703 36.3962 31.1785 34.9001C30.7492 33.4149 30.2094 30.3862 31.3434 29.2329C34.1403 29.2329 35.8312 31.0751 36.2372 31.5728C37.6309 31.0877 39.1616 30.8128 40.77 30.8128C42.3816 30.8128 43.9185 31.0877 45.3154 31.5759C45.7167 31.0814 47.4092 29.2329 50.2123 29.2329C51.3509 30.3878 50.8049 33.4292 50.3709 34.9111C51.6714 36.4041 52.4367 38.1752 52.4367 40.0079C52.4367 44.2689 49.4749 47.4082 43.2683 48.0607C44.9763 48.966 46.2223 51.5097 46.2223 53.4261V57.7456C46.2223 57.9099 46.1865 58.0284 46.1678 58.169C53.4416 55.5795 58.6667 48.5647 58.6667 40.2923C58.6667 29.8222 50.3087 21.3333 40 21.3333Z" fill="white"/>
</svg>
