<svg width="80" height="80" viewBox="0 0 80 80" fill="none" xmlns="http://www.w3.org/2000/svg">
<rect width="80" height="80" rx="5" fill="#B6CFB6"/>
<path d="M49.3323 20C43.2752 20 38.3495 24.7411 38.3495 30.5712C38.3495 30.9216 38.4405 31.2643 38.4761 31.607C30.9868 30.9177 24.3639 27.4448 19.8655 22.1325C19.6558 21.8774 19.3314 21.7403 18.9912 21.7631C18.6549 21.786 18.3542 21.9726 18.188 22.2544C17.2425 23.8195 16.7004 25.6207 16.7004 27.5552C16.7004 29.8972 17.5708 32.0411 18.916 33.8005C18.6549 33.69 18.37 33.6291 18.1247 33.4958C17.8122 33.3359 17.4363 33.3435 17.1317 33.5187C16.827 33.6938 16.6411 34.0099 16.6371 34.3488V34.4707C16.6371 38.0617 18.5678 41.1805 21.4164 43.0922C21.3847 43.0883 21.3531 43.0998 21.3214 43.0922C20.9733 43.035 20.6212 43.1531 20.3877 43.4082C20.1543 43.6634 20.0791 44.0175 20.182 44.3412C21.3135 47.7266 24.2017 50.3123 27.7782 51.2567C24.9296 52.8865 21.6261 53.8462 18.0614 53.8462C17.2899 53.8462 16.5501 53.8081 15.8142 53.7243C15.3395 53.6634 14.8845 53.9299 14.7262 54.3641C14.564 54.7982 14.742 55.2818 15.1495 55.5217C19.7191 58.3435 25.1433 60 30.9749 60C40.4266 60 47.8408 56.1995 52.8139 50.7692C57.787 45.3389 60.3784 38.2864 60.3784 31.6984C60.3784 31.4204 60.3547 31.15 60.3468 30.8759C62.2023 29.5088 63.86 27.9056 65.1577 26.032C65.4149 25.6702 65.3872 25.1866 65.0904 24.8515C64.7977 24.5164 64.3031 24.4136 63.8917 24.6002C63.3694 24.8248 62.7602 24.8477 62.2142 25.0267C62.9342 24.1013 63.5514 23.1036 63.9233 21.9802C64.0499 21.5956 63.9114 21.1729 63.5831 20.9216C63.2547 20.674 62.7958 20.6436 62.4357 20.853C60.7068 21.8393 58.7919 22.5324 56.7702 22.9551C54.8079 21.1881 52.2244 20 49.3323 20ZM49.3323 21.9497C51.9158 21.9497 54.2501 23.0122 55.884 24.6915C56.1293 24.9353 56.4893 25.0381 56.8336 24.9657C58.155 24.7144 59.4091 24.345 60.6316 23.869C59.9274 24.7829 59.057 25.5636 58.0363 26.1538C57.5734 26.3709 57.3558 26.885 57.5259 27.3534C57.6921 27.818 58.1985 28.0883 58.7009 27.9817C59.7138 27.8637 60.6158 27.4676 61.5812 27.2201C60.7147 28.1226 59.7652 28.9375 58.7326 29.6573C58.4517 29.8553 58.2974 30.1752 58.3211 30.5103C58.337 30.9063 58.3528 31.2986 58.3528 31.6984C58.3528 37.7913 55.9236 44.4059 51.2947 49.4593C46.6658 54.5126 39.8688 58.0503 30.9749 58.0503C26.9355 58.0503 23.1216 57.1896 19.6756 55.674C23.9485 55.358 27.889 53.9033 31.0699 51.5004C31.4022 51.2452 31.5328 50.8187 31.3982 50.4303C31.2637 50.0419 30.8918 49.7753 30.4685 49.7639C27.1293 49.7068 24.3322 47.837 22.8407 45.1942C22.8961 45.1942 22.9435 45.1942 22.9989 45.1942C23.9999 45.1942 24.989 45.0724 25.9108 44.8286C26.3539 44.703 26.6585 44.3069 26.6427 43.8614C26.6269 43.4158 26.2985 43.035 25.8475 42.9398C22.2433 42.2391 19.5411 39.4136 18.916 35.9025C19.9367 36.2414 20.9812 36.508 22.1127 36.5423C22.5756 36.5689 22.995 36.2909 23.1374 35.8682C23.2798 35.4455 23.1058 34.981 22.7141 34.7449C20.3086 33.195 18.7261 30.556 18.7261 27.5552C18.7261 26.4433 19.0268 25.4227 19.4224 24.4478C24.4865 29.7982 31.5763 33.3511 39.5839 33.7395C39.9004 33.7548 40.209 33.6291 40.4147 33.3968C40.6205 33.1607 40.6996 32.8484 40.6284 32.5514C40.4741 31.9193 40.3752 31.249 40.3752 30.5712C40.3752 25.7959 44.3711 21.9497 49.3323 21.9497Z" fill="white"/>
</svg>
