<svg width="81" height="80" viewBox="0 0 81 80" fill="none" xmlns="http://www.w3.org/2000/svg">
<rect x="0.333252" width="80" height="80" rx="5" fill="#FFC8A2"/>
<path d="M32.6968 20.9333C26.3944 20.9333 21.2665 26.0612 21.2665 32.3636V47.6363C21.2665 53.9388 26.3944 59.0666 32.6968 59.0666H47.9695C54.272 59.0666 59.3998 53.9388 59.3998 47.6363V32.3636C59.3998 26.0612 54.272 20.9333 47.9695 20.9333H32.6968ZM32.6968 23.4303H47.9695C52.9129 23.4303 56.9029 27.4202 56.9029 32.3636V47.6363C56.9029 52.5797 52.9129 56.5697 47.9695 56.5697H32.6968C27.7534 56.5697 23.7635 52.5797 23.7635 47.6363V32.3636C23.7635 27.4202 27.7534 23.4303 32.6968 23.4303ZM50.515 27.7212C49.9588 27.7212 49.4255 27.9421 49.0322 28.3354C48.6389 28.7286 48.418 29.262 48.418 29.8182C48.418 30.3743 48.6389 30.9077 49.0322 31.3009C49.4255 31.6942 49.9588 31.9151 50.515 31.9151C51.0711 31.9151 51.6045 31.6942 51.9978 31.3009C52.391 30.9077 52.612 30.3743 52.612 29.8182C52.612 29.262 52.391 28.7286 51.9978 28.3354C51.6045 27.9421 51.0711 27.7212 50.515 27.7212ZM40.3332 30.2666C34.9676 30.2666 30.5998 34.6345 30.5998 40C30.5998 45.3655 34.9676 49.7333 40.3332 49.7333C45.6987 49.7333 50.0665 45.3655 50.0665 40C50.0665 34.6345 45.6987 30.2666 40.3332 30.2666ZM40.3332 32.7636C44.3398 32.7636 47.5695 35.9934 47.5695 40C47.5695 44.0066 44.3398 47.2363 40.3332 47.2363C36.3266 47.2363 33.0968 44.0066 33.0968 40C33.0968 35.9934 36.3266 32.7636 40.3332 32.7636Z" fill="white" stroke="white" stroke-width="0.8"/>
</svg>
