<svg width="81" height="80" viewBox="0 0 81 80" fill="none" xmlns="http://www.w3.org/2000/svg">
<rect x="0.666748" width="80" height="80" rx="5" fill="#FFAEA5"/>
<path d="M20.6667 27.6667V52.3333H32.5834C33.6876 52.3333 41.2917 52.1094 41.2917 45.1667C41.2917 40.8281 38.3074 39.3542 36.7917 38.9167C37.9063 38.3906 40.1251 37.1406 40.1251 33.7917C40.1251 31.9271 39.8595 27.6667 32.2501 27.6667H20.6667ZM47.8334 29.9583V32.2083H57.0417V29.9583H47.8334ZM26.0834 31.875H31.1667C31.6459 31.875 34.8751 31.6198 34.8751 34.7083C34.8751 37.3489 32.5417 37.625 31.5834 37.625H26.0834V31.875ZM52.6667 34.25C45.7032 34.25 44.2501 40.2969 44.2501 42.9167C44.2501 50.6927 50.6251 51.5833 52.6667 51.5833C58.172 51.5833 59.7345 48.0208 60.3751 46.0417H56.3751C56.2188 46.5521 55.0522 48.2083 52.8334 48.2083C49.1147 48.2083 48.7917 45.3021 48.7917 44H60.6251C60.8647 39.5 58.8959 34.25 52.6667 34.25ZM52.5417 37.625C53.6511 37.625 54.547 37.9479 55.0834 38.5417C55.6199 39.1406 56.0157 40.0156 56.1251 41.1667H48.7917C48.8126 40.8489 48.8855 40.4844 49.0001 40.0833C49.1147 39.6719 49.2917 39.2812 49.5834 38.9167C49.8751 38.5573 50.2813 38.2448 50.7501 38C51.2292 37.75 51.823 37.625 52.5417 37.625ZM26.0834 41.3333H31.9584C33.1251 41.3333 35.8751 41.5156 35.8751 44.875C35.8751 48.1302 32.4115 48.125 31.8751 48.125H26.0834V41.3333Z" fill="white"/>
</svg>
